<?xml version="1.0" encoding="UTF-8"?>
<svg id="Layer_1" xmlns="http://www.w3.org/2000/svg" viewBox="0 0 512 512">
  <defs>
    <style>
      .cls-1, .cls-2 {
        fill: red;
      }

      .cls-2 {
        stroke: #231f20;
      }
    </style>
  </defs>
  <line class="cls-2" x1="244.43" y1="238.68" x2="244.43" y2="238.68"/>
  <polyline points="29.15 317.98 122.26 281.09 117.46 320.6 73.26 357.04 38.54 370.35 25.61 360.56 29.15 317.98"/>
  <path d="M312.96,218.72l170.3-70.28-6.07-15.43-5.06,2.02-.93,6.41-178.99,71.57-5.77,69.17-.56.23-19.97-8.57,12.87-5.14,4.56-52.15-56.13,22.44-.72,7.73c-.4,4.25-.97,10.08-1.28,12.96l-.03.26,34.24-13.86.22.65-.87,9.62-34.2,13.84-3.17,37.98-.56.23-8.2-3.52,2.76-30.74.95-10.63.13-.05,1.83-20.93-87.02,34.73-6.38,72.74.2.5,21.52-8.84,3.73-41.51.02-.2h-.1s43.32-17.53,43.32-17.53l-3.04,34.7,24.78,10.56,26.18-10.44,2.75-31.08,36.11,15.52,26.18-10.44,6.41-72.52"/>
  <path class="cls-1" d="M117.78,266.93l.58,1.44c.13.32.49.48.81.35l4.83-1.92c.32-.13.48-.49.35-.81l-.74-1.86,6.15-2.45,3.03,7.6,32.08-12.79-3.03-7.6,8.82-3.52,29.68-5.16,40.54-16.17s0,0,0,0c1.38-.55,2.05-2.12,1.5-3.5l-6.9-17.3c-.55-1.38-2.11-2.05-3.49-1.5l-41.63,16.6-32.18,21.39-.65-1.63-15.42,6.15-2.3-5.76-10.42,4.15,2.3,5.76-12.4,4.95-.74-1.86c-.13-.32-.49-.48-.81-.35l-4.83,1.92c-.32.13-.48.49-.35.81l.5,1.26-5.13-.11-27.86,11.13,6.25,15.67,27.46-10.95,3.99-3.94"/>
</svg>