<?xml version="1.0" encoding="UTF-8"?>
<svg id="Layer_1" xmlns="http://www.w3.org/2000/svg" viewBox="0 0 512 200">
  <defs>
    <style>
      .cls-1, .cls-2 {
        fill: red;
      }

      .cls-2 {
        stroke: #231f20;
      }
    </style>
  </defs>
  <line class="cls-2" x1="256.22" y1="97.34" x2="256.22" y2="97.34"/>
  <g>
    <polyline points="23.4 77.83 123.55 78.03 104.47 112.95 49.92 130.44 12.74 129.96 4.35 116.08 23.4 77.83"/>
    <path d="M323.79,90.67l184.22-2.26.08-16.58h-5.45s-3.24,5.62-3.24,5.62l-192.76.23-30.97,62.12h-.61s-15.38-15.35-15.38-15.35h13.86s23.54-46.76,23.54-46.76l-60.45.07-3.53,6.91c-1.94,3.8-4.63,9.01-5.98,11.56l-.12.24,36.93-.2-.03.69-4.37,8.62-36.89.2-17,34.11h-.61s-6.31-6.3-6.31-6.3l13.94-27.53,4.81-9.52h.14s9.45-18.76,9.45-18.76l-93.69.05-32.85,65.21v.54s23.27-.25,23.27-.25l18.83-37.18.09-.18-.09-.04,46.73-.25-15.67,31.11,19.11,18.98h28.19s14.05-27.87,14.05-27.87l27.8,27.79h28.19s32.79-65.01,32.79-65.01"/>
    <path class="cls-1" d="M124.63,63.22v1.56c0,.35.28.63.63.63h5.2c.35,0,.63-.28.63-.63v-2s6.62,0,6.62,0v8.18s34.54-.01,34.54-.01v-8.18s9.49,0,9.49,0l29.48,6.19,43.65-.02s0,0,0,0c1.49,0,2.69-1.21,2.69-2.69v-18.63c0-1.49-1.21-2.69-2.69-2.69l-44.82.02-37.81,7.96v-1.75s-16.6,0-16.6,0v-6.2s-11.22,0-11.22,0v6.2s-13.35,0-13.35,0v-2c0-.35-.28-.63-.63-.63h-5.2c-.35,0-.63.28-.63.63v1.35s-4.72-2-4.72-2l-30,.03v16.87s29.57-.01,29.57-.01l5.16-2.18"/>
  </g>
</svg>